<svg xmlns="http://www.w3.org/2000/svg" viewBox="0 0 520 620" width="520" height="620">
<g fill="#efe7d6">
<circle cx="484.0" cy="310.0" r="20"/>
<circle cx="477.5" cy="375.6" r="20"/>
<circle cx="458.3" cy="437.3" r="20"/>
<circle cx="427.7" cy="491.7" r="20"/>
<circle cx="387.2" cy="535.5" r="20"/>
<circle cx="339.4" cy="566.2" r="20"/>
<circle cx="287.0" cy="582.0" r="20"/>
<circle cx="233.0" cy="582.0" r="20"/>
<circle cx="180.6" cy="566.2" r="20"/>
<circle cx="132.8" cy="535.5" r="20"/>
<circle cx="92.3" cy="491.7" r="20"/>
<circle cx="61.7" cy="437.3" r="20"/>
<circle cx="42.5" cy="375.6" r="20"/>
<circle cx="36.0" cy="310.0" r="20"/>
<circle cx="42.5" cy="244.4" r="20"/>
<circle cx="61.7" cy="182.7" r="20"/>
<circle cx="92.3" cy="128.3" r="20"/>
<circle cx="132.8" cy="84.5" r="20"/>
<circle cx="180.6" cy="53.8" r="20"/>
<circle cx="233.0" cy="38.0" r="20"/>
<circle cx="287.0" cy="38.0" r="20"/>
<circle cx="339.4" cy="53.8" r="20"/>
<circle cx="387.2" cy="84.5" r="20"/>
<circle cx="427.7" cy="128.3" r="20"/>
<circle cx="458.3" cy="182.7" r="20"/>
<circle cx="477.5" cy="244.4" r="20"/>
</g>
<path fill-rule="evenodd" fill="#f3ede0" stroke="#d7ccb4" stroke-width="2" d="M260 30 a230 280 0 1 0 0.1 0 Z M260 98 a165 212 0 1 1 -0.1 0 Z"/>
<ellipse cx="260" cy="310" rx="174" ry="221" fill="none" stroke="#cbbfa6" stroke-width="2" opacity="0.6"/>
<g fill="#cdbf9f">
<circle cx="429.0" cy="310.0" r="4"/>
<circle cx="428.2" cy="331.2" r="4"/>
<circle cx="425.8" cy="352.1" r="4"/>
<circle cx="421.7" cy="372.7" r="4"/>
<circle cx="416.1" cy="392.7" r="4"/>
<circle cx="409.0" cy="411.8" r="4"/>
<circle cx="400.5" cy="430.0" r="4"/>
<circle cx="390.6" cy="447.0" r="4"/>
<circle cx="379.5" cy="462.7" r="4"/>
<circle cx="367.2" cy="477.0" r="4"/>
<circle cx="353.9" cy="489.6" r="4"/>
<circle cx="339.7" cy="500.5" r="4"/>
<circle cx="324.7" cy="509.6" r="4"/>
<circle cx="309.1" cy="516.7" r="4"/>
<circle cx="293.0" cy="521.8" r="4"/>
<circle cx="276.6" cy="525.0" r="4"/>
<circle cx="260.0" cy="526.0" r="4"/>
<circle cx="243.4" cy="525.0" r="4"/>
<circle cx="227.0" cy="521.8" r="4"/>
<circle cx="210.9" cy="516.7" r="4"/>
<circle cx="195.3" cy="509.6" r="4"/>
<circle cx="180.3" cy="500.5" r="4"/>
<circle cx="166.1" cy="489.6" r="4"/>
<circle cx="152.8" cy="477.0" r="4"/>
<circle cx="140.5" cy="462.7" r="4"/>
<circle cx="129.4" cy="447.0" r="4"/>
<circle cx="119.5" cy="430.0" r="4"/>
<circle cx="111.0" cy="411.8" r="4"/>
<circle cx="103.9" cy="392.7" r="4"/>
<circle cx="98.3" cy="372.7" r="4"/>
<circle cx="94.2" cy="352.1" r="4"/>
<circle cx="91.8" cy="331.2" r="4"/>
<circle cx="91.0" cy="310.0" r="4"/>
<circle cx="91.8" cy="288.8" r="4"/>
<circle cx="94.2" cy="267.9" r="4"/>
<circle cx="98.3" cy="247.3" r="4"/>
<circle cx="103.9" cy="227.3" r="4"/>
<circle cx="111.0" cy="208.2" r="4"/>
<circle cx="119.5" cy="190.0" r="4"/>
<circle cx="129.4" cy="173.0" r="4"/>
<circle cx="140.5" cy="157.3" r="4"/>
<circle cx="152.8" cy="143.0" r="4"/>
<circle cx="166.1" cy="130.4" r="4"/>
<circle cx="180.3" cy="119.5" r="4"/>
<circle cx="195.3" cy="110.4" r="4"/>
<circle cx="210.9" cy="103.3" r="4"/>
<circle cx="227.0" cy="98.2" r="4"/>
<circle cx="243.4" cy="95.0" r="4"/>
<circle cx="260.0" cy="94.0" r="4"/>
<circle cx="276.6" cy="95.0" r="4"/>
<circle cx="293.0" cy="98.2" r="4"/>
<circle cx="309.1" cy="103.3" r="4"/>
<circle cx="324.7" cy="110.4" r="4"/>
<circle cx="339.7" cy="119.5" r="4"/>
<circle cx="353.9" cy="130.4" r="4"/>
<circle cx="367.2" cy="143.0" r="4"/>
<circle cx="379.5" cy="157.3" r="4"/>
<circle cx="390.6" cy="173.0" r="4"/>
<circle cx="400.5" cy="190.0" r="4"/>
<circle cx="409.0" cy="208.2" r="4"/>
<circle cx="416.1" cy="227.3" r="4"/>
<circle cx="421.7" cy="247.3" r="4"/>
<circle cx="425.8" cy="267.9" r="4"/>
<circle cx="428.2" cy="288.8" r="4"/>
</g>
<circle cx="260" cy="24.0" r="13" fill="#f3ede0" stroke="#d7ccb4" stroke-width="2"/>
<circle cx="260" cy="24.0" r="5" fill="#cdbf9f"/>
<circle cx="260" cy="596.0" r="13" fill="#f3ede0" stroke="#d7ccb4" stroke-width="2"/>
<circle cx="260" cy="596.0" r="5" fill="#cdbf9f"/>
</svg>